<?xml version="1.0" encoding="UTF-8"?><!DOCTYPE svg PUBLIC "-//W3C//DTD SVG 1.1//EN" "http://www.w3.org/Graphics/SVG/1.1/DTD/svg11.dtd"><svg xmlns="http://www.w3.org/2000/svg" xmlns:xlink="http://www.w3.org/1999/xlink" version="1.1" id="Layer_1" x="0px" y="0px" viewBox="0 0 50 50" xml:space="preserve"><path d="M39.387 21.471H32.29V11.199a1 1 0 0 0-1-1H17.484a1 1 0 0 0-1 1V21.47H9.387a1 1 0 0 0-1 1v12.98a1 1 0 0 0 1 1h6.894v3.565a1 1 0 0 0 1 1h13.806a1 1 0 0 0 1-1V36.45h7.301a1 1 0 0 0 1-1V22.471c-.001-.553-.449-1-1.001-1zm-20.903-9.272H30.29v9.271H18.484v-9.271zm11.602 26.817H18.28v-6.329h11.806v6.329zm8.301-4.566h-6.301v-2.764a1 1 0 0 0-1-1H17.28a1 1 0 0 0-1 1v2.764h-5.894V23.471h6.894c.068.014.131.041.203.041H31.29c.072 0 .136-.027.203-.041h6.893V34.45z"/><metadata><rdf:RDF xmlns:rdf="http://www.w3.org/1999/02/22-rdf-syntax-ns#" xmlns:rdfs="http://www.w3.org/2000/01/rdf-schema#" xmlns:dc="http://purl.org/dc/elements/1.1/"><rdf:Description about="https://iconscout.com/legal#licenses" dc:title="print" dc:description="print" dc:publisher="Iconscout" dc:date="2017-09-26" dc:format="image/svg+xml" dc:language="en"><dc:creator><rdf:Bag><rdf:li>Petras Nargėla</rdf:li></rdf:Bag></dc:creator></rdf:Description></rdf:RDF></metadata></svg>