<svg id="SvgjsSvg1015" width="288" height="288" xmlns="http://www.w3.org/2000/svg" version="1.1" xmlns:xlink="http://www.w3.org/1999/xlink" xmlns:svgjs="http://svgjs.com/svgjs"><defs id="SvgjsDefs1016"></defs><g id="SvgjsG1017" transform="matrix(0.9167,0,0,0.9167,12.307086914062495,11.621224805068977)"><svg xmlns="http://www.w3.org/2000/svg" width="288" height="288" viewBox="0 0 32 32"><path style="text-indent:0;text-align:start;line-height:normal;text-transform:none;block-progression:tb" fill="#fff266" d="m 25.351562,7 0,0.00195 0,1 c 0.348985,0 0.852125,-1.093e-4 1.208985,0.087891 0.17843,0.045 0.308,0.1125218 0.369141,0.1699218 0.06114,0.057 0.08594,0.088016 0.08594,0.2285156 l 0,5.0019528 c 0,0.3448 0.152425,0.576982 0.308594,0.800782 0.156168,0.2239 0.343562,0.433406 0.523437,0.628906 0.179876,0.1956 0.352581,0.376619 0.466797,0.511719 0.01012,0.012 0.01042,0.01439 0.01953,0.02539 -0.114505,0.1168 -0.294144,0.279897 -0.482422,0.466797 -0.378104,0.3753 -0.857421,0.8547 -0.857421,1.5625 l 0,5.03125 c 0,0.1403 -0.02525,0.166222 -0.105469,0.232422 -0.08021,0.066 -0.241741,0.138441 -0.441406,0.181641 -0.399331,0.087 -0.862282,0.06445 -1.095704,0.06445 l 0,1 c 0.113073,0 0.72106,0.03911 1.306641,-0.08789 0.292791,-0.063 0.599716,-0.165919 0.867188,-0.386719 0.267471,-0.2209 0.46875,-0.592306 0.46875,-1.003906 l 0,-5.03125 c 0,-0.1644 0.229682,-0.523216 0.5625,-0.853516 0.166408,-0.165199 0.341983,-0.321062 0.49414,-0.476562 0.07608,-0.078 0.146292,-0.1547 0.212891,-0.25 0.0666,-0.095 0.152344,-0.211641 0.152344,-0.431641 0,-0.2173 -0.0743,-0.322221 -0.134766,-0.419921 -0.06047,-0.098 -0.128978,-0.181832 -0.203125,-0.269532 -0.148294,-0.1753 -0.324003,-0.358069 -0.494141,-0.542968 -0.170137,-0.185 -0.333112,-0.372991 -0.439453,-0.525391 -0.10634,-0.1524 -0.128906,-0.275616 -0.128906,-0.228516 l 0,-5.0019529 c 0,-0.38 -0.162359,-0.7317312 -0.402344,-0.9570312 -0.239985,-0.2253 -0.52573,-0.3390563 -0.804687,-0.4101563 C 26.250679,6.9770406 25.67321,7 25.351562,7 z m -17.8710932,0.00195 c -0.3216462,0 -0.899117,-0.022959 -1.4570313,0.1191407 C 5.7444803,7.1920937 5.456782,7.30595 5.2167969,7.53125 4.9768118,7.75655 4.8164062,8.1082812 4.8164062,8.4882812 l 0,5.0019528 c 0,-0.047 -0.022566,0.07602 -0.1289062,0.228516 -0.1063406,0.1524 -0.2693161,0.340391 -0.4394531,0.525391 -0.170137,0.1849 -0.3478003,0.367668 -0.4960938,0.542968 -0.074147,0.088 -0.1407029,0.171832 -0.2011719,0.269532 -0.060469,0.098 -0.1347656,0.202621 -0.1347656,0.419921 0,0.220001 0.083791,0.336441 0.1503906,0.431641 0.066599,0.095 0.1387653,0.1723 0.2148438,0.25 0.152157,0.1555 0.3257787,0.311363 0.4921875,0.476563 0.3328176,0.3303 0.5644531,0.689115 0.5644531,0.853515 l 0,5.03125 c 0,0.4116 0.1993251,0.783006 0.4667969,1.003907 0.2674718,0.2208 0.5763499,0.323218 0.8691406,0.386718 0.5855814,0.1269 1.1935687,0.08789 1.3066407,0.08789 l 0,-1 c -0.2334209,0 -0.6963732,0.02155 -1.0957032,-0.06445 -0.199665,-0.043 -0.3631451,-0.115441 -0.4433594,-0.181641 -0.080214,-0.066 -0.1035156,-0.09202 -0.1035156,-0.232422 l 0,-5.03125 c 0,-0.7078 -0.4812707,-1.1872 -0.859375,-1.5625 -0.1890521,-0.1876 -0.3679832,-0.35185 -0.4824218,-0.46875 0.00874,-0.011 0.00988,-0.01439 0.019531,-0.02539 0.1142156,-0.1351 0.2888748,-0.316119 0.46875,-0.511719 0.1798752,-0.1955 0.367269,-0.405006 0.5234375,-0.628906 0.1561685,-0.2238 0.3085939,-0.455982 0.3085937,-0.800782 l 0,-5.0019528 c 0,-0.1409 0.024796,-0.1711156 0.085938,-0.2285156 0.061141,-0.057 0.1887573,-0.1245218 0.3671874,-0.1699218 0.3568605,-0.091 0.861954,-0.087891 1.2109376,-0.087891 z m 12.5019532,1 c 0.07864,-0.012787 0.163392,0.0065 0.238281,0.060547 l 1.982422,1.4257812 c 0.149789,0.1078 0.180092,0.2934594 0.07227,0.4433594 l -1.19336,1.6582034 -2.511719,-1.7792971 1.207032,-1.6757813 c 0.0539,-0.0749 0.126436,-0.120025 0.205078,-0.1328125 z m -1.978516,2.6347659 2.492188,1.765625 -6.335938,8.802734 -2.501953,-1.800781 z m -6.84375,9.642578 2.326172,1.673828 -2.835937,1.488281 z" color="#000" font-family="sans-serif" font-weight="400" overflow="visible" class="color373449 svgShape"></path></svg></g></svg>